<svg xmlns="http://www.w3.org/2000/svg" viewBox="0 0 437.04 67.36"><defs><style>.cls-1{fill:#e1ccf2;}.cls-2{fill:#fff;}</style></defs><title>logo</title><g id="Layer_2" data-name="Layer 2"><g id="Home_Screen" data-name="Home Screen"><g id="LOGO"><path class="cls-1" d="M20.47.58H31.7L11.23,61.17H0Z"/><path class="cls-1" d="M40.7.58H51.93L31.45,61.17H20.23Z"/><path class="cls-2" d="M69.26,37.48V54.24H56.14V3.55H78.92c10.9,0,18.41,6.19,18.41,17.25,0,7.68-3.88,13-10.07,15.28L99.15,54.24H84.45L73.89,37.48Zm0-10.57h8.26c4.7,0,6.85-2.39,6.85-6.11s-2.15-6.11-6.85-6.11H69.26Z"/><path class="cls-2" d="M137.12,41.28c-1.32,8.58-7.76,13.78-17.42,13.78-11.39,0-18.9-7.84-18.9-19.4s7.93-19.4,18.66-19.4c11.39,0,17.83,7.6,17.83,18.66v3.22h-24C113.68,42.6,116,45,119.7,45c2.65,0,4.71-1.16,5.45-3.71ZM113.51,31.7h11.23c-.16-3.05-2.06-5.37-5.28-5.37C116.4,26.33,114.34,28.23,113.51,31.7Z"/><path class="cls-1" d="M164.7.58V12.71c-6.85,2.31-11.64,8.09-11.64,18.16S157.85,46.72,164.7,49V61.17c-14.45-3.22-23.45-14.69-23.45-30.3S150.25,3.8,164.7.58Z"/><path class="cls-1" d="M182.78,67.36h-13V17.09h13v3a12.91,12.91,0,0,1,9.16-3.8c10.73,0,16.59,8.75,16.59,19.4s-5.86,19.4-16.59,19.4a12.86,12.86,0,0,1-9.16-3.8Zm0-26.83A6.31,6.31,0,0,0,188.47,44c4.46,0,7.1-3.55,7.1-8.34s-2.64-8.42-7.1-8.42a6.37,6.37,0,0,0-5.69,3.47Z"/><path class="cls-1" d="M231,55.06c-11.23,0-19-7.92-19-19.4s7.76-19.4,19-19.4,19,7.93,19,19.4S242.3,55.06,231,55.06Zm0-28.15c-4,0-6.19,3.63-6.19,8.75S227,44.33,231,44.33s6.27-3.55,6.27-8.67S235,26.91,231,26.91Z"/><path class="cls-1" d="M252.37,61.17V49C259.22,46.72,264,41,264,30.87S259.22,15,252.37,12.71V.58c14.45,3.22,23.45,14.69,23.45,30.29S266.82,58,252.37,61.17Z"/><path class="cls-2" d="M298.52,16.26c10,0,16.18,5.95,17.25,14.61H303.22a4.48,4.48,0,0,0-4.7-3.88c-3.63,0-5.95,3.39-5.95,8.67s2.32,8.59,5.95,8.59a4.41,4.41,0,0,0,4.7-3.8h12.55c-1.07,8.59-7.26,14.61-17.25,14.61-11.15,0-18.74-7.92-18.74-19.4S287.37,16.26,298.52,16.26Z"/><path class="cls-2" d="M345.57,29.39a11.09,11.09,0,0,0-5.36-1.16c-3.55,0-5.95,1.57-6.61,4.21v21.8h-13V17.09h13v3.3A10.14,10.14,0,0,1,342,16.26a8,8,0,0,1,3.55.66Z"/><path class="cls-2" d="M386.52,54.24h-13V51a13.28,13.28,0,0,1-9.91,4c-8.17,0-13-5.36-13-13.62V17.09h12.88v21.3c0,3.13,1.48,5.36,4.79,5.36a5.44,5.44,0,0,0,5.28-4.13V17.09h13Z"/><path class="cls-2" d="M400,14c-4,0-7.35-2.72-7.35-6.93S396,0,400,0s7.34,2.72,7.34,7S403.94,14,400,14Zm6.44,40.29h-13V17.09h13Z"/><path class="cls-2" d="M416.16,27.16h-5.45V17.09h5.45V6.85H429V17.09h7.76V27.16H429V39.54c0,2.89,1.41,4.13,4,4.13a11,11,0,0,0,4.12-.83v11A19.93,19.93,0,0,1,429.86,55c-8.75,0-13.7-4.13-13.7-13.54Z"/></g></g></g></svg>