<svg xmlns="http://www.w3.org/2000/svg" viewBox="0 0 51.59 59.04"><defs><style>.cls-1{fill:#fff;}</style></defs><title>searchIcon</title><g id="Layer_2" data-name="Layer 2"><g id="Home_Screen" data-name="Home Screen"><g id="Search"><path class="cls-1" d="M30.39,42.38A21.25,21.25,0,1,1,38,41,21.23,21.23,0,0,1,30.39,42.38ZM30.39,8a13.07,13.07,0,0,0-4.73.88A13.18,13.18,0,1,0,42.45,26.52a13.05,13.05,0,0,0,.25-10.08A13.2,13.2,0,0,0,30.39,8Z"/><path class="cls-1" d="M4,59a4,4,0,0,1-2.37-.77,4,4,0,0,1-.85-5.59L15.15,33.1a4,4,0,0,1,6.45,4.73L7.22,57.41A4,4,0,0,1,4,59Z"/></g></g></g></svg>